<svg viewBox="0 0 78 30" fill="#5818C6" aria-hidden="true" xmlns="http://www.w3.org/2000/svg">
        <path d="M17.632 11.979c.225.03.432.138.586.304a.987.987 0 0 1 .078 1.239c-4.537 6.291-6.16 15.535-6.2 15.766l-.002.004a.983.983 0 0 1-1.745.438L5.23 23.132a.982.982 0 1 1 1.555-1.2l3.802 4.92c.561-2.41 1.817-6.943 4.053-11.149a63.58 63.58 0 0 1-3.689 1.83c-3.428 1.553-8.167 3.323-9.728.796-.427-.692-.748-1.86.15-3.502.06-.107.125-.218.192-.327C.363 13.058.258 11.042 1.27 8.82a2.754 2.754 0 0 1-.629-1.323C.221 5.286 2.07 2.3 3.104 1.042a.983.983 0 0 1 1.521 1.245c-.995 1.215-2.01 3.145-2.079 4.39a14.768 14.768 0 0 1 3.83-3.653c1.724-1.092 3.178-1.322 4.203-.673.698.443 1.142 1.415.304 2.825C9.735 7.121 6.22 9.764 3.548 9.764a3.73 3.73 0 0 1-.534-.038c-.677 1.536-.47 2.549-.153 3.144 2.89-3.035 8.257-5.933 11.084-5.98 1.257-.02 1.842.518 2.112.977.573.969.076 2.134-1.477 3.467-2.117 1.819-6.951 4.449-10.156 4.449a4.414 4.414 0 0 1-1.238-.16c-.42.707-.516 1.281-.28 1.665.034.054.906 1.316 7.233-1.547a71.824 71.824 0 0 0 6.847-3.628.985.985 0 0 1 .646-.134ZM4.757 13.761l-.044.041a10.798 10.798 0 0 0 2.978-.756c3.548-1.35 6.09-3.4 6.554-4.192a1.18 1.18 0 0 0-.21-.016c-1.381 0-5.908 1.737-9.278 4.923Zm4.515-9.808c-.948 0-3.211 1.307-5.049 3.772a7.037 7.037 0 0 0 1.867-.776c1.715-.987 2.955-2.343 3.242-2.996h-.06Zm68.726.922a2.538 2.538 0 1 1-5.076 0 2.538 2.538 0 0 1 5.076 0ZM73.44 8.88h4.04a.26.26 0 0 1 .26.26v13.607a.26.26 0 0 1-.26.26h-4.04a.26.26 0 0 1-.26-.26V9.14a.26.26 0 0 1 .26-.26Zm-23.692 0a.26.26 0 0 0-.26.26v1.324c-.901-1.13-2.267-1.763-3.772-1.857-3.772-.235-7.243 2.934-7.243 7.335s3.462 7.572 7.243 7.335c1.515-.094 2.881-.727 3.772-1.857v1.325a.26.26 0 0 0 .26.26h4.038a.26.26 0 0 0 .26-.26V9.139a.26.26 0 0 0-.26-.26h-4.038Zm-3.433 10.447c-1.806 0-3.235-1.518-3.235-3.383s1.429-3.384 3.235-3.384a3.384 3.384 0 0 1 0 6.767Zm14.857-8.863c1.136-1.226 2.666-1.871 4.005-1.871 3.135 0 5.604 2.133 5.585 6.698v7.467a.262.262 0 0 1-.26.26h-4.038a.262.262 0 0 1-.262-.26v-7.07c0-1.655-.738-3.122-2.515-3.122-1.777 0-2.515 1.488-2.515 3.123v7.058a.262.262 0 0 1-.262.26h-4.038a.262.262 0 0 1-.26-.26V9.14a.262.262 0 0 1 .26-.26h4.038a.262.262 0 0 1 .262.26v1.324Zm-30.704 7.32L27.364 9.08a.299.299 0 0 0-.283-.2h-4.206a.262.262 0 0 0-.243.355l5.273 13.58a.298.298 0 0 0 .28.19h4.559a.298.298 0 0 0 .279-.19l5.28-13.582a.259.259 0 0 0-.242-.354h-4.225a.304.304 0 0 0-.285.199l-3.083 8.707Z">
        </path>
</svg>