<svg width="24" height="24" viewBox="0 0 24 24" fill="none" xmlns="http://www.w3.org/2000/svg">
<mask id="path-1-inside-1_175_1993" fill="white">
<path fill-rule="evenodd" clip-rule="evenodd" d="M20.3478 5.64075C20.5462 5.83282 20.5513 6.14936 20.3592 6.34776L9.17316 17.9033C8.98165 18.1012 8.66623 18.1069 8.46761 17.9162L3.6537 13.294C3.45451 13.1027 3.44808 12.7862 3.63934 12.587C3.8306 12.3878 4.14711 12.3814 4.3463 12.5727L8.80101 16.85L19.6408 5.65224C19.8328 5.45383 20.1494 5.44869 20.3478 5.64075Z"/>
</mask>
<path fill-rule="evenodd" clip-rule="evenodd" d="M20.3478 5.64075C20.5462 5.83282 20.5513 6.14936 20.3592 6.34776L9.17316 17.9033C8.98165 18.1012 8.66623 18.1069 8.46761 17.9162L3.6537 13.294C3.45451 13.1027 3.44808 12.7862 3.63934 12.587C3.8306 12.3878 4.14711 12.3814 4.3463 12.5727L8.80101 16.85L19.6408 5.65224C19.8328 5.45383 20.1494 5.44869 20.3478 5.64075Z" fill="#5818C6"/>
<path d="M20.3592 6.34776L13.1743 -0.607539L13.1743 -0.607507L20.3592 6.34776ZM20.3478 5.64075L27.303 -1.54425L27.303 -1.54425L20.3478 5.64075ZM9.17316 17.9033L16.3582 24.8586L16.3582 24.8586L9.17316 17.9033ZM8.46761 17.9162L15.3936 10.703L15.3936 10.703L8.46761 17.9162ZM3.6537 13.294L10.5797 6.08077L10.5797 6.08077L3.6537 13.294ZM3.63934 12.587L-3.57389 5.66104L-3.57389 5.66104L3.63934 12.587ZM4.3463 12.5727L-2.57969 19.7859L-2.57969 19.7859L4.3463 12.5727ZM8.80101 16.85L1.87502 24.0632L9.05897 30.9611L15.986 23.8053L8.80101 16.85ZM19.6408 5.65224L26.8257 12.6075L26.8258 12.6075L19.6408 5.65224ZM27.5442 13.3031C31.5776 9.13645 31.4696 2.48908 27.303 -1.54425L13.3925 12.8257C9.62277 9.17655 9.52498 3.16226 13.1743 -0.607539L27.5442 13.3031ZM16.3582 24.8586L27.5442 13.303L13.1743 -0.607507L1.98816 10.948L16.3582 24.8586ZM1.54162 25.1294C5.71254 29.1343 12.3364 29.0132 16.3582 24.8586L1.98817 10.948C5.6269 7.18913 11.6199 7.07957 15.3936 10.703L1.54162 25.1294ZM-3.27229 20.5072L1.54162 25.1294L15.3936 10.703L10.5797 6.08077L-3.27229 20.5072ZM-3.57389 5.66104C-7.59026 9.84398 -7.45524 16.4908 -3.27229 20.5072L10.5797 6.08077C14.3643 9.71464 14.4864 15.7285 10.8526 19.513L-3.57389 5.66104ZM11.2723 5.35945C7.08936 1.34308 0.442496 1.47809 -3.57389 5.66104L10.8526 19.513C7.21869 23.2976 1.20487 23.4198 -2.57969 19.7859L11.2723 5.35945ZM15.727 9.63677L11.2723 5.35945L-2.57969 19.7859L1.87502 24.0632L15.727 9.63677ZM12.4558 -1.30303L1.61602 9.89473L15.986 23.8053L26.8257 12.6075L12.4558 -1.30303ZM27.303 -1.54425C23.1365 -5.5776 16.4891 -5.46961 12.4557 -1.30303L26.8258 12.6075C23.1765 16.3773 17.1622 16.475 13.3925 12.8257L27.303 -1.54425Z" fill="#5818C6" mask="url(#path-1-inside-1_175_1993)"/>
</svg>
